<svg viewBox="0 -5.67 42.603 42.603" xmlns="http://www.w3.org/2000/svg">
  <g id="Group_995" data-name="Group 995" transform="translate(-959.269 -741.234)">
    <path id="Path_698" data-name="Path 698" d="M980.571,744.818a.708.708,0,1,0-.709-.708A.708.708,0,0,0,980.571,744.818Z" fill="#FFD700"/>
    <path id="Path_699" data-name="Path 699" d="M1001.854,758.825a.751.751,0,0,0-.684-.582c-2.776-.177-7.747-1.472-14.375-3.745-1.681-.577-3.449-1.209-5.254-1.879-.481-.178-.9-.344-1.276-.5A23.9,23.9,0,0,0,982,747.853a2.9,2.9,0,0,1,.474-.972h0c1.833-2.462,7.443-1.762,9.129-1.487h0c.293.05.583.1.867.16a.738.738,0,0,0,.147.014.75.75,0,0,0,.161-1.482s-.35-.078-.927-.172h0c-3.235-.563-6.914-.826-8.3-.925l-.251-.018c-.505-.623-1.828-1.737-4.833-1.737h-.024c-3.144,0-4.178,2.9-4.933,5.013a7.982,7.982,0,0,1-.882,1.979.624.624,0,0,1-.194.176,15.476,15.476,0,0,0-5.32,4.465h0a18.893,18.893,0,0,0-3.575,8.766l-4.208,9.818a.751.751,0,0,0,.69,1.046h2.834a.748.748,0,0,0,.7-.472l2.7-6.759a17.679,17.679,0,0,0,3.834-1.7,2.147,2.147,0,0,0,3.437-1.737,2.109,2.109,0,0,0-.115-.689c.283-.248.556-.5.822-.753a10.142,10.142,0,0,0,7.266.742.744.744,0,0,0,.153-.066l.334,1a.752.752,0,0,0,.526.489,21.252,21.252,0,0,0,5.262.639,30.954,30.954,0,0,0,13.716-3.546A.752.752,0,0,0,1001.854,758.825Z" fill="#FFD700"/>
  </g>
</svg>
